<svg width="1200" height="900" viewBox="0 0 1200 900" fill="none" xmlns="http://www.w3.org/2000/svg">
  <rect width="1200" height="900" fill="#0F1012"/>
  <path d="M0 0H1200V900H0V0Z" fill="url(#grid)"/>
  <rect x="92" y="88" width="1016" height="724" rx="18" fill="#15181D" stroke="#2A3038" stroke-width="2"/>
  <rect x="92" y="88" width="1016" height="64" rx="18" fill="#111418"/>
  <circle cx="130" cy="120" r="8" fill="#00B5D8"/>
  <circle cx="158" cy="120" r="8" fill="#5A626D"/>
  <circle cx="186" cy="120" r="8" fill="#5A626D"/>
  <rect x="226" y="107" width="356" height="26" rx="13" fill="#20252B"/>
  <rect x="132" y="204" width="416" height="38" rx="19" fill="#00B5D8" fill-opacity="0.9"/>
  <rect x="132" y="268" width="552" height="82" rx="10" fill="#F5F7FA" fill-opacity="0.94"/>
  <rect x="132" y="374" width="484" height="82" rx="10" fill="#F5F7FA" fill-opacity="0.82"/>
  <rect x="132" y="494" width="180" height="54" rx="27" fill="#F5F7FA"/>
  <rect x="332" y="494" width="184" height="54" rx="27" fill="#161A20" stroke="#00B5D8" stroke-width="2"/>
  <rect x="706" y="214" width="300" height="224" rx="14" fill="#20252B" stroke="#00B5D8" stroke-opacity="0.5" stroke-width="2"/>
  <rect x="736" y="248" width="172" height="18" rx="9" fill="#00B5D8"/>
  <rect x="736" y="292" width="228" height="16" rx="8" fill="#CBD5E1" fill-opacity="0.64"/>
  <rect x="736" y="326" width="196" height="16" rx="8" fill="#CBD5E1" fill-opacity="0.44"/>
  <rect x="736" y="370" width="88" height="32" rx="16" fill="#00B5D8" fill-opacity="0.28"/>
  <rect x="842" y="370" width="88" height="32" rx="16" fill="#00B5D8" fill-opacity="0.16"/>
  <rect x="694" y="492" width="138" height="220" rx="18" fill="#15181D" stroke="#00B5D8" stroke-opacity="0.46" stroke-width="2"/>
  <rect x="720" y="532" width="86" height="14" rx="7" fill="#00B5D8"/>
  <rect x="720" y="570" width="72" height="14" rx="7" fill="#CBD5E1" fill-opacity="0.5"/>
  <rect x="720" y="604" width="88" height="72" rx="10" fill="#00B5D8" fill-opacity="0.16"/>
  <rect x="866" y="514" width="164" height="164" rx="16" fill="#15181D" stroke="#2A3038" stroke-width="2"/>
  <path d="M906 628L938 588L966 622L984 602L1012 638H906V628Z" fill="#00B5D8" fill-opacity="0.44"/>
  <circle cx="986" cy="560" r="17" fill="#00B5D8" fill-opacity="0.7"/>
  <text x="132" y="650" fill="#00B5D8" font-family="DM Sans, Arial, sans-serif" font-size="22" font-weight="700">React</text>
  <text x="230" y="650" fill="#CBD5E1" font-family="DM Sans, Arial, sans-serif" font-size="22" font-weight="700">Tailwind CSS</text>
  <text x="420" y="650" fill="#CBD5E1" font-family="DM Sans, Arial, sans-serif" font-size="22" font-weight="700">GSAP</text>
  <text x="512" y="650" fill="#CBD5E1" font-family="DM Sans, Arial, sans-serif" font-size="22" font-weight="700">Three.js</text>
  <defs>
    <pattern id="grid" width="48" height="48" patternUnits="userSpaceOnUse">
      <path d="M48 0H0V48" stroke="#FFFFFF" stroke-opacity="0.04"/>
    </pattern>
  </defs>
</svg>
