<svg width="1200" height="900" viewBox="0 0 1200 900" fill="none" xmlns="http://www.w3.org/2000/svg">
  <rect width="1200" height="900" fill="#F9F9F6"/>
  <path d="M0 0H1200V900H0V0Z" fill="url(#grid)"/>
  <rect x="110" y="96" width="980" height="700" rx="16" fill="#FFFFFF" stroke="#D8DEE6" stroke-width="2"/>
  <rect x="110" y="96" width="980" height="74" rx="16" fill="#111827"/>
  <rect x="148" y="124" width="178" height="20" rx="10" fill="#00B5D8"/>
  <rect x="760" y="124" width="72" height="18" rx="9" fill="#F9F9F6" fill-opacity="0.7"/>
  <rect x="854" y="124" width="72" height="18" rx="9" fill="#F9F9F6" fill-opacity="0.42"/>
  <rect x="948" y="117" width="104" height="32" rx="16" fill="#00B5D8"/>
  <rect x="152" y="232" width="418" height="46" rx="10" fill="#111827"/>
  <rect x="152" y="306" width="356" height="22" rx="11" fill="#4B5563" fill-opacity="0.7"/>
  <rect x="152" y="348" width="462" height="22" rx="11" fill="#4B5563" fill-opacity="0.46"/>
  <rect x="152" y="414" width="158" height="50" rx="25" fill="#00B5D8"/>
  <rect x="330" y="414" width="150" height="50" rx="25" fill="#FFFFFF" stroke="#D8DEE6" stroke-width="2"/>
  <rect x="690" y="230" width="282" height="282" rx="22" fill="#111827"/>
  <rect x="730" y="270" width="202" height="126" rx="14" fill="#00B5D8" fill-opacity="0.22"/>
  <rect x="730" y="426" width="154" height="18" rx="9" fill="#F9F9F6"/>
  <rect x="730" y="462" width="106" height="18" rx="9" fill="#F9F9F6" fill-opacity="0.5"/>
  <rect x="152" y="574" width="250" height="144" rx="14" fill="#FFFFFF" stroke="#D8DEE6" stroke-width="2"/>
  <rect x="182" y="604" width="120" height="16" rx="8" fill="#00B5D8"/>
  <rect x="182" y="642" width="170" height="14" rx="7" fill="#4B5563" fill-opacity="0.42"/>
  <rect x="182" y="676" width="132" height="14" rx="7" fill="#4B5563" fill-opacity="0.32"/>
  <rect x="474" y="574" width="250" height="144" rx="14" fill="#FFFFFF" stroke="#D8DEE6" stroke-width="2"/>
  <rect x="504" y="604" width="118" height="16" rx="8" fill="#00B5D8"/>
  <rect x="504" y="642" width="164" height="14" rx="7" fill="#4B5563" fill-opacity="0.42"/>
  <rect x="504" y="676" width="136" height="14" rx="7" fill="#4B5563" fill-opacity="0.32"/>
  <rect x="796" y="574" width="250" height="144" rx="14" fill="#FFFFFF" stroke="#D8DEE6" stroke-width="2"/>
  <rect x="826" y="604" width="122" height="16" rx="8" fill="#00B5D8"/>
  <rect x="826" y="642" width="160" height="14" rx="7" fill="#4B5563" fill-opacity="0.42"/>
  <rect x="826" y="676" width="138" height="14" rx="7" fill="#4B5563" fill-opacity="0.32"/>
  <text x="152" y="766" fill="#111827" font-family="DM Sans, Arial, sans-serif" font-size="22" font-weight="700">HTML</text>
  <text x="236" y="766" fill="#4B5563" font-family="DM Sans, Arial, sans-serif" font-size="22" font-weight="700">CSS</text>
  <text x="302" y="766" fill="#4B5563" font-family="DM Sans, Arial, sans-serif" font-size="22" font-weight="700">JavaScript</text>
  <defs>
    <pattern id="grid" width="48" height="48" patternUnits="userSpaceOnUse">
      <path d="M48 0H0V48" stroke="#111827" stroke-opacity="0.045"/>
    </pattern>
  </defs>
</svg>
